<?xml version="1.0" encoding="UTF-8"?>
<!DOCTYPE svg PUBLIC "-//W3C//DTD SVG 1.0//EN" "http://www.w3.org/TR/2001/REC-SVG-20010904/DTD/svg10.dtd">
<!-- Creator: CorelDRAW 2018 -->
<svg xmlns="http://www.w3.org/2000/svg" xml:space="preserve" width="109px" height="53px" version="1.0" style="shape-rendering:geometricPrecision; text-rendering:geometricPrecision; image-rendering:optimizeQuality; fill-rule:evenodd; clip-rule:evenodd"
viewBox="0 0 8.87 4.26"
 xmlns:xlink="http://www.w3.org/1999/xlink">
 <defs>
  <style type="text/css">
   <![CDATA[
    .fil6 {fill:#D2D240}
    .fil3 {fill:#2E4B44}
    .fil4 {fill:#468325}
    .fil2 {fill:#59BC1C}
    .fil5 {fill:#64DD17}
    .fil1 {fill:#F79633;fill-rule:nonzero}
    .fil0 {fill:#2A2E31;fill-rule:nonzero}
   ]]>
  </style>
 </defs>
 <g id="Layer_x0020_1">
  <metadata id="CorelCorpID_0Corel-Layer"/>
  <path class="fil0" d="M0.04 2.74l0 -2.44 1.06 0c0.22,0 0.41,0.04 0.56,0.11 0.16,0.07 0.28,0.17 0.37,0.3 0.08,0.14 0.13,0.29 0.13,0.48 0,0.18 -0.05,0.34 -0.13,0.47 -0.09,0.13 -0.21,0.23 -0.37,0.3 -0.15,0.07 -0.34,0.11 -0.56,0.11l-0.74 0 0.25 -0.26 0 0.93 -0.57 0zm0.57 -0.86l-0.25 -0.27 0.71 0c0.17,0 0.3,-0.04 0.39,-0.11 0.08,-0.08 0.13,-0.18 0.13,-0.31 0,-0.14 -0.05,-0.24 -0.13,-0.32 -0.09,-0.07 -0.22,-0.11 -0.39,-0.11l-0.71 0 0.25 -0.27 0 1.39z"/>
  <path class="fil1" d="M2.57 0.61c-0.1,0 -0.18,-0.03 -0.24,-0.09 -0.07,-0.06 -0.1,-0.13 -0.1,-0.22 0,-0.08 0.03,-0.15 0.1,-0.21 0.06,-0.06 0.14,-0.09 0.24,-0.09 0.1,0 0.18,0.03 0.24,0.08 0.07,0.06 0.1,0.13 0.1,0.21 0,0.09 -0.03,0.17 -0.1,0.23 -0.06,0.06 -0.14,0.09 -0.24,0.09z"/>
  <polygon class="fil0" points="2.3,2.74 2.3,0.87 2.84,0.87 2.84,2.74 "/>
  <path class="fil0" d="M3.99 2.77c-0.2,0 -0.38,-0.04 -0.54,-0.13 -0.15,-0.08 -0.28,-0.19 -0.37,-0.34 -0.09,-0.14 -0.13,-0.31 -0.13,-0.5 0,-0.18 0.04,-0.35 0.13,-0.5 0.09,-0.14 0.22,-0.25 0.37,-0.34 0.16,-0.08 0.34,-0.12 0.54,-0.12 0.2,0 0.37,0.04 0.52,0.12 0.15,0.09 0.25,0.2 0.32,0.36l-0.42 0.22c-0.05,-0.09 -0.11,-0.15 -0.18,-0.19 -0.07,-0.04 -0.15,-0.07 -0.24,-0.07 -0.09,0 -0.18,0.03 -0.25,0.07 -0.07,0.04 -0.13,0.1 -0.18,0.18 -0.04,0.07 -0.06,0.16 -0.06,0.27 0,0.11 0.02,0.21 0.06,0.28 0.05,0.08 0.11,0.14 0.18,0.18 0.07,0.04 0.16,0.06 0.25,0.06 0.09,0 0.17,-0.02 0.24,-0.06 0.07,-0.04 0.13,-0.1 0.18,-0.19l0.42 0.22c-0.07,0.16 -0.17,0.27 -0.32,0.35 -0.15,0.09 -0.32,0.13 -0.52,0.13z"/>
  <path class="fil0" d="M6.01 0.84c0.15,0 0.29,0.03 0.4,0.09 0.12,0.06 0.21,0.15 0.28,0.27 0.07,0.12 0.1,0.28 0.1,0.47l0 1.07 -0.54 0 0 -0.99c0,-0.15 -0.04,-0.26 -0.1,-0.33 -0.07,-0.07 -0.16,-0.11 -0.28,-0.11 -0.09,0 -0.16,0.02 -0.23,0.05 -0.07,0.04 -0.13,0.09 -0.16,0.17 -0.04,0.07 -0.06,0.17 -0.06,0.28l0 0.93 -0.54 0 0 -2.58 0.54 0 0 1.23 -0.12 -0.16c0.06,-0.13 0.16,-0.22 0.29,-0.29 0.12,-0.07 0.26,-0.1 0.42,-0.1z"/>
  <path class="fil2" d="M7.97 2.77c-0.22,0 -0.4,-0.04 -0.56,-0.13 -0.17,-0.08 -0.29,-0.19 -0.38,-0.34 -0.09,-0.15 -0.13,-0.31 -0.13,-0.5 0,-0.18 0.04,-0.35 0.13,-0.5 0.09,-0.14 0.21,-0.25 0.36,-0.34 0.15,-0.08 0.32,-0.12 0.51,-0.12 0.18,0 0.35,0.04 0.5,0.12 0.14,0.07 0.26,0.19 0.35,0.33 0.08,0.15 0.12,0.32 0.12,0.52 0,0.02 0,0.05 0,0.07 0,0.03 0,0.05 -0.01,0.08l-1.41 0c-0.02,-0.11 -0.02,-0.21 -0.01,-0.32l0.92 0 0 0c0,-0.06 -0.02,-0.11 -0.05,-0.16 -0.04,-0.07 -0.09,-0.13 -0.16,-0.17 -0.07,-0.04 -0.15,-0.06 -0.25,-0.06 -0.09,0 -0.17,0.02 -0.24,0.06 -0.07,0.04 -0.13,0.1 -0.17,0.17 -0.04,0.07 -0.06,0.16 -0.06,0.26l0 0.08c0,0.11 0.02,0.2 0.07,0.27 0.05,0.08 0.11,0.14 0.19,0.18 0.08,0.04 0.18,0.06 0.29,0.06 0.1,0 0.19,-0.01 0.27,-0.04 0.07,-0.03 0.14,-0.08 0.2,-0.14l0.29 0.32c-0.08,0.09 -0.19,0.17 -0.32,0.22 -0.13,0.05 -0.28,0.08 -0.45,0.08z"/>
  <circle class="fil0" cx="0.56" cy="3.7" r="0.56"/>
  <path class="fil3" d="M1.8 3.19c0.28,0 0.5,0.23 0.5,0.51 0,0.28 -0.22,0.51 -0.5,0.51 -0.29,0 -0.51,-0.23 -0.51,-0.51 0,-0.28 0.22,-0.51 0.51,-0.51z"/>
  <path class="fil4" d="M3.03 3.25c0.25,0 0.46,0.2 0.46,0.45 0,0.25 -0.21,0.46 -0.46,0.46 -0.25,0 -0.46,-0.21 -0.46,-0.46 0,-0.25 0.21,-0.45 0.46,-0.45z"/>
  <path class="fil2" d="M4.26 3.3c0.23,0 0.41,0.18 0.41,0.4 0,0.22 -0.18,0.41 -0.41,0.41 -0.22,0 -0.4,-0.19 -0.4,-0.41 0,-0.22 0.18,-0.4 0.4,-0.4z"/>
  <path class="fil5" d="M5.5 3.35c0.19,0 0.35,0.16 0.35,0.35 0,0.2 -0.16,0.35 -0.35,0.35 -0.2,0 -0.36,-0.15 -0.36,-0.35 0,-0.19 0.16,-0.35 0.36,-0.35z"/>
  <path class="fil6" d="M6.73 3.4c0.16,0 0.3,0.14 0.3,0.3 0,0.17 -0.14,0.3 -0.3,0.3 -0.17,0 -0.3,-0.13 -0.3,-0.3 0,-0.16 0.13,-0.3 0.3,-0.3z"/>
  <circle class="fil1" cx="7.96" cy="3.7" r="0.24"/>
 </g>
</svg>
